<svg width="801" height="151" viewBox="0 0 801 151" fill="none" xmlns="http://www.w3.org/2000/svg">
<path d="M111.704 79.3283L110.14 83.7619H110.009C109.748 82.7621 109.27 81.2408 108.488 79.4152L100.099 58.3341H91.8837V91.9335H97.317V71.2001L97.2735 66.5927C97.2301 65.6799 97.1431 64.9844 97.0997 64.4628H97.23C97.4908 65.7668 97.7951 66.7231 98.0124 67.3316L108.097 91.8466H111.922L121.919 67.1143C122.136 66.5492 122.354 65.4191 122.571 64.4628H122.701L122.44 70.5047V91.8031H128.221V58.2472H120.311L111.704 79.3283ZM133.698 67.7228H139.349V91.8031H133.698V67.7228ZM136.567 57.5517C135.611 57.5517 134.828 57.8994 134.176 58.508C133.524 59.1165 133.177 59.8989 133.177 60.8551C133.171 61.288 133.257 61.7173 133.429 62.1144C133.601 62.5116 133.856 62.8676 134.176 63.1589C134.828 63.7674 135.611 64.0716 136.567 64.0716C137.523 64.0716 138.349 63.7239 138.958 63.1589C139.278 62.8676 139.533 62.5116 139.705 62.1144C139.877 61.7173 139.963 61.288 139.957 60.8551C139.957 59.9424 139.61 59.16 138.958 58.508C138.393 57.8994 137.567 57.5517 136.567 57.5517ZM159.387 67.5055C158.344 67.2881 157.257 67.1577 156.214 67.1577C153.649 67.1577 151.302 67.7228 149.346 68.8529C147.39 69.9831 145.825 71.5478 144.826 73.5038C143.782 75.5033 143.261 77.807 143.261 80.4584C143.261 82.7621 143.782 84.805 144.782 86.6741C145.782 88.4997 147.173 89.9775 149.042 90.9773C150.824 91.977 152.91 92.4986 155.257 92.4986C157.952 92.4986 160.256 91.9335 162.082 90.8903L162.125 90.8469V85.6309L161.908 85.8048C161.082 86.4133 160.126 86.9349 159.169 87.2392C158.17 87.5869 157.257 87.7608 156.475 87.7608C154.214 87.7608 152.432 87.1088 151.172 85.6744C149.868 84.2835 149.216 82.3709 149.216 79.9803C149.216 77.5027 149.868 75.5467 151.215 74.1123C152.563 72.678 154.345 71.939 156.518 71.939C158.344 71.939 160.213 72.5476 161.908 73.7646L162.125 73.9385V68.4183L162.082 68.3748C161.343 68.0705 160.517 67.7228 159.387 67.5055ZM178.034 67.3316C176.643 67.3316 175.339 67.7663 174.209 68.6791C173.253 69.4615 172.601 70.5916 172.035 71.939H171.992V67.7228H166.341V91.8031H171.992V79.5022C171.992 77.4158 172.427 75.6771 173.383 74.4166C174.339 73.1126 175.556 72.4606 177.034 72.4606C177.556 72.4606 178.077 72.591 178.729 72.678C179.338 72.8518 179.772 73.0257 180.077 73.243L180.294 73.4169V67.7663L180.164 67.7228C179.772 67.462 178.99 67.3316 178.034 67.3316ZM193.421 67.2012C189.465 67.2012 186.292 68.3748 184.076 70.6785C181.815 72.9822 180.729 76.1553 180.729 80.1542C180.729 83.8923 181.859 86.9349 184.032 89.1517C186.205 91.325 189.161 92.4551 192.856 92.4551C196.724 92.4551 199.81 91.2815 202.027 88.9343C204.287 86.5872 205.374 83.4576 205.374 79.5891C205.374 75.7641 204.331 72.7214 202.201 70.5047C200.158 68.2879 197.159 67.2012 193.421 67.2012ZM197.941 85.7178C196.898 87.0653 195.246 87.7173 193.204 87.7173C191.161 87.7173 189.509 87.0653 188.335 85.6309C187.162 84.2835 186.597 82.3275 186.597 79.8499C186.597 77.2854 187.205 75.3294 188.335 73.9385C189.509 72.5476 191.117 71.8521 193.16 71.8521C195.16 71.8521 196.724 72.5041 197.854 73.8516C198.985 75.199 199.593 77.155 199.593 79.7195C199.506 82.3275 199.028 84.3704 197.941 85.7178ZM217.979 77.72C216.197 76.9811 215.067 76.4161 214.545 75.9379C214.111 75.5033 213.893 74.8947 213.893 74.1123C213.893 73.4604 214.154 72.8084 214.806 72.3737C215.458 71.939 216.197 71.7217 217.284 71.7217C218.24 71.7217 219.24 71.8956 220.196 72.1564C221.152 72.4172 222.022 72.8084 222.717 73.33L222.934 73.5038V68.2009L222.804 68.1575C222.152 67.8967 221.283 67.6359 220.24 67.4185C219.196 67.2447 218.24 67.1577 217.458 67.1577C214.763 67.1577 212.546 67.8097 210.807 69.2441C209.069 70.5916 208.243 72.4172 208.243 74.547C208.243 75.6771 208.417 76.6769 208.808 77.5027C209.199 78.3286 209.764 79.111 210.547 79.763C211.329 80.3715 212.459 81.067 214.024 81.7189C215.328 82.284 216.328 82.7187 216.936 83.0664C217.545 83.4141 217.936 83.8053 218.24 84.1096C218.457 84.4573 218.588 84.892 218.588 85.457C218.588 87.0653 217.371 87.8477 214.893 87.8477C213.937 87.8477 212.937 87.6738 211.764 87.2826C210.59 86.8914 209.503 86.3264 208.591 85.6744L208.373 85.5005V91.0207L208.504 91.0642C209.33 91.4554 210.329 91.7162 211.546 92.0204C212.763 92.2378 213.85 92.4116 214.806 92.4116C217.718 92.4116 220.109 91.7596 221.804 90.3253C223.543 88.9343 224.456 87.1522 224.456 84.8485C224.456 83.2403 224.021 81.8059 223.065 80.7192C221.804 79.676 220.24 78.5894 217.979 77.72ZM239.365 67.2012C235.409 67.2012 232.236 68.3748 230.019 70.6785C227.803 72.9822 226.673 76.1553 226.673 80.1542C226.673 83.8923 227.803 86.9349 229.976 89.1517C232.149 91.325 235.105 92.4551 238.8 92.4551C242.668 92.4551 245.754 91.2815 247.971 88.9343C250.231 86.5872 251.318 83.4576 251.318 79.5891C251.318 75.7641 250.275 72.7214 248.145 70.5047C246.102 68.2879 243.103 67.2012 239.365 67.2012ZM243.842 85.7178C242.799 87.0653 241.147 87.7173 239.104 87.7173C237.018 87.7173 235.409 87.0653 234.236 85.6309C233.062 84.2835 232.497 82.3275 232.497 79.8499C232.497 77.2854 233.106 75.3294 234.236 73.9385C235.409 72.5476 237.018 71.8521 239.06 71.8521C241.016 71.8521 242.625 72.5041 243.755 73.8516C244.885 75.199 245.493 77.155 245.493 79.7195C245.493 82.3275 244.928 84.3704 243.842 85.7178ZM281.527 72.3737V67.7228H275.833V60.5943L275.659 60.6378L270.269 62.2461L270.139 62.2895V67.7228H261.619V64.6802C261.619 63.2893 261.967 62.2026 262.576 61.5071C263.184 60.8117 264.097 60.4639 265.227 60.4639C266.01 60.4639 266.835 60.6378 267.748 61.029L267.965 61.1594V56.2477L267.835 56.2043C267.053 55.9435 266.009 55.7696 264.662 55.7696C262.967 55.7696 261.489 56.1608 260.142 56.8128C258.794 57.5517 257.794 58.5514 257.055 59.8989C256.317 61.2029 255.925 62.6807 255.925 64.3759V67.7228H251.97V72.3302H255.925V91.8031H261.619V72.3737H270.139V84.7616C270.139 89.8471 272.529 92.4116 277.311 92.4116C278.093 92.4116 278.919 92.2812 279.701 92.1508C280.527 91.977 281.136 91.7596 281.483 91.5858L281.527 91.5423V86.8914L281.31 87.0653C280.962 87.2826 280.658 87.4565 280.136 87.5869C279.701 87.7173 279.31 87.7608 279.006 87.7608C277.876 87.7608 277.093 87.5 276.528 86.848C276.007 86.2394 275.746 85.2397 275.746 83.7619V72.3737H281.527Z" fill="#F89D21" fill-opacity="0.6"/>
<path d="M19.0343 47.0329H45.6791V73.6777H19.0343V47.0329Z" fill="#F89D21" fill-opacity="0.6"/>
<path d="M48.4609 47.0329H75.1057V73.6777H48.4609V47.0329Z" fill="#F89D21" fill-opacity="0.6"/>
<path d="M19.0343 76.4595H45.6791V103.104H19.0343V76.4595Z" fill="#F89D21" fill-opacity="0.6"/>
<path d="M48.4609 76.4595H75.1057V103.104H48.4609V76.4595Z" fill="#F89D21" fill-opacity="0.6"/>
<path d="M444.28 47.5919C440.985 49.0617 437.49 50.0264 433.911 50.454C437.639 48.2045 440.501 44.6423 441.849 40.398C438.305 42.5153 434.428 44.007 430.385 44.8088C427.091 41.2764 422.399 39.0688 417.206 39.0688C407.235 39.0688 399.152 47.2071 399.152 57.2447C399.152 58.6695 399.311 60.0566 399.619 61.3873C384.614 60.629 371.311 53.3929 362.406 42.3959C360.853 45.0805 359.962 48.2031 359.962 51.5338C359.962 57.84 363.15 63.4032 367.994 66.6629C365.127 66.5725 362.323 65.7929 359.816 64.3892C359.815 64.4653 359.815 64.5414 359.815 64.6179C359.815 73.4245 366.038 80.7711 374.297 82.4409C371.639 83.1688 368.85 83.2754 366.144 82.7524C368.442 89.9736 375.109 95.2285 383.009 95.3755C376.83 100.25 369.046 103.156 360.587 103.156C359.13 103.156 357.693 103.07 356.28 102.902C364.27 108.06 373.76 111.069 383.956 111.069C417.164 111.069 435.324 83.3718 435.324 59.3527C435.324 58.5643 435.306 57.7805 435.271 57.0011C438.806 54.4287 441.857 51.2424 444.28 47.5919Z" fill="#F89D21"/>
<path d="M615.652 111.697C604.473 104.496 589.301 103.232 564.833 110.02C538.749 116.15 530.052 120.079 518.63 112.191C514.242 108.316 512.669 102.077 513.844 93.0905C516.568 78.4404 523.931 64.3419 537.01 48.7033C544.31 40.5682 551.082 33.5867 560.023 30.7833C566.876 29.0246 566.236 34.4103 565.406 35.1806C564.531 35.1806 563.062 35.3184 561.926 36.0597C561.004 36.7748 558.473 39.0837 558.337 42.1894C558.141 46.9439 563.061 45.9543 565.183 43.3439C567.471 40.4022 570.852 34.769 568.192 29.5188C567.078 27.6501 565.152 26.3586 562.761 25.9188C554.573 25.4509 546.948 29.3539 539.91 33.669C524.519 44.3605 512.208 59.1751 505.241 75.3913C501.225 85.1755 497.593 99.1909 503.037 110.598C507.249 118.513 515.993 122.718 526.426 121.838C533.742 121.07 542.59 118.705 548.541 117.277C554.491 115.847 584.952 105.376 594.96 123.6C594.96 123.6 598.288 117.139 606.605 117.001C613.443 116.37 623.308 118.981 630.492 124.257C628.098 120.658 621.313 115.353 615.652 111.697Z" fill="#F89D21" fill-opacity="0.6"/>
<path d="M567.939 50.5446C562.242 46.8067 550.792 53.9527 541.62 66.2102C533.234 77.2051 529.612 89.9839 533.553 95.8932C539.416 102.846 550.299 92.7326 554.927 87.319L555.525 86.6862C558.672 83.3055 561.104 79.2376 563.457 75.3345C563.457 75.3345 565.62 71.7616 565.724 71.5963C567.061 71.35 568.671 70.965 570.486 70.4426C570.46 70.5245 563.543 82.1507 564.249 87.9214C564.468 89.682 564.3 96.1133 570.58 98.0642C578.948 99.4669 585.631 92.9797 591.526 87.2079C591.526 87.2079 592.531 86.2468 593.099 85.6982C592.955 86.2739 592.768 87.0419 592.768 87.0419C590.318 95.5623 593.62 97.3499 595.686 98.0098C601.93 99.8248 609.388 90.7542 609.412 90.7542C609.219 93.6114 608.653 95.9751 611.665 97.8716C614.508 98.8893 617.385 97.3379 619.572 95.8812C627.449 90.3294 633.795 81.6404 638.921 74.1294H635.652C635.613 74.1294 627.584 85.7669 622.37 88.2962C622.362 88.2962 621.413 88.7833 620.866 88.398C620.19 87.8204 620.457 86.6201 620.875 85.7699C620.901 85.7143 641.005 50.8454 641.005 50.8454H631.513C631.513 50.8454 630.476 52.523 630.391 52.633C630.327 52.5782 630.175 52.2898 630.07 52.1516C624.189 44.0164 610.871 56.5297 600.844 71.0409C596.984 76.6208 592.069 82.9033 586.973 87.4381C586.973 87.4381 579.423 94.3587 576.197 89.3864C575.018 87.2973 575.381 84.2429 576.046 82.2371C579.802 71.5456 586.273 61.8426 593.638 55.9878C595.717 54.3673 597.977 53.8986 599.098 54.5859C600.166 55.219 600.339 56.7843 599.663 57.8565C597.948 57.8017 596.574 58.3229 595.456 59.4774C593.256 61.7862 592.491 64.0129 593.191 66.102C596.59 70.9391 603.369 61.3743 603.041 55.5476C602.924 53.4585 601.809 51.4801 600.146 50.5172C597.667 49.0337 593.885 49.4179 591.438 50.6005C588.161 51.8368 582.975 56.1515 579.948 59.5052C576.137 63.7109 569.601 68.3828 567.556 67.8596C568.226 66.0724 573.747 54.7766 567.939 50.5446ZM613.704 67.255C615.55 64.6994 620.925 57.8554 622.235 56.7013C626.642 52.8245 628.403 54.5303 628.556 55.7388C624.443 63.1044 619.589 71.5426 615.025 79.1287C615.035 79.1017 613.597 81.2997 613.597 81.2997C611.582 84.3774 609.552 87.016 606.242 88.8573C605.77 88.9955 604.991 89.0507 604.474 88.6646C603.85 88.2523 603.604 87.565 603.674 86.85C603.873 84.487 606.279 77.26 613.704 67.255ZM562.064 71.6797C562.064 71.6797 561.981 71.9279 561.94 72.0091C561.93 72.0091 557.802 78.7419 557.802 78.7419C555.311 82.0681 552.2 86.2468 548.311 88.2523C547.159 88.6372 545.566 88.8851 544.754 87.8688C543.033 85.8071 543.92 82.9488 544.64 80.6403L544.895 79.8156C546.962 74.2094 550.24 69.2612 553.431 64.6712C553.471 64.6442 553.56 64.6168 553.593 64.6168C553.6 64.6442 553.613 64.6442 553.619 64.6994C555.621 68.5465 559.376 70.3322 562.184 71.1581C562.201 71.1581 562.219 71.1855 562.219 71.2407C562.219 71.3225 562.173 71.4333 562.064 71.6797ZM565.975 63.7376C565.957 63.7924 564.136 67.9697 564.136 67.9697C563.873 68.1893 563.457 68.0797 562.98 67.9697L562.163 67.8314C559.597 67.0349 557.661 65.3307 557.064 63.2971C556.241 59.3392 559.622 56.2334 561.112 55.1071C562.541 54.1168 564.763 53.5948 566.054 54.6121C566.85 55.5469 567.151 56.7558 567.151 58.0758C567.152 59.8619 566.6 61.8681 565.975 63.7376Z" fill="#F89D21" fill-opacity="0.6"/>
<path d="M685.978 76.4894C685.063 74.511 682.89 73.2465 680.574 73.3836C673.055 74.0712 665.7 80.255 661.838 89.1318C659.811 93.6947 658.705 97.4596 657.98 103.451C660.318 100.758 665.088 96.3337 670.5 93.9148C670.5 93.9148 671.237 88.1708 674.992 83.0585C676.413 80.9415 679.257 77.5338 682.451 78.4403C685.241 79.3754 684.26 87.0986 680.552 94.5728C677.808 100.07 673.61 105.569 669.361 109.361C665.605 112.549 660.048 116.397 655.187 113.429C652.124 111.616 650.562 107.822 650.893 102.929C652.356 89.0503 658.674 77.2318 667.715 63.7646C677.038 51.2593 687.314 38.4241 701.158 31.5794C703.982 30.1504 706.597 29.8207 708.857 30.7002C708.857 30.7002 695.862 37.8462 689.667 51.0666C688.091 54.4203 685.899 58.9539 688.106 62.967C689.26 65.0554 691.308 65.2206 692.956 65.1106C700.549 63.3512 705.455 56.2604 709.463 49.7747C711.787 44.855 713.853 39.9628 713.853 34.5207C713.853 33.8612 713.819 32.9821 713.763 32.3219C717.391 30.3987 724.829 33.806 724.829 33.806C730.643 35.7307 743.02 45.2133 747.196 47.0265C749.232 44.6631 752.579 41.0905 754.464 39.3037L751.736 37.6269C747.368 34.9608 742.751 32.4319 738.207 29.9311C727.888 24.2975 719.488 26.2759 715.212 27.8153C713.532 28.4195 711.997 28.9419 711.997 28.9419C708.824 25.479 703.621 25.808 699.787 26.7431C685.999 30.7006 673.198 40.3473 659.473 57.0859C649.383 70.1963 643.124 81.5202 639.788 92.7059C637.217 100.236 636.435 111.312 642.711 117.882C648.047 123.459 655.123 122.251 660.12 120.245C670.946 114.913 680.676 103.424 685.524 90.204C686.694 86.2743 687.993 80.7225 685.978 76.4894ZM710.872 35.0709C709.439 51.5067 696.663 61.1546 693.502 61.923C691.586 62.3071 688.317 61.4558 691.236 54.5581C695.533 45.2674 702.87 37.3801 710.741 33.3396C710.933 34.0268 710.928 34.4655 710.872 35.0709Z" fill="#F89D21" fill-opacity="0.6"/>
<path d="M786.657 37.1589C779.785 41.0624 772.661 43.5902 764.038 42.711C761.648 45.4052 759.321 48.1809 757.176 51.0388C769.279 54.1172 782.111 47.2736 789.267 40.7604C796.838 34.1913 800.72 25.9191 800.72 25.9191C800.72 25.9191 795.045 32.4049 786.657 37.1589Z" fill="#F89D21" fill-opacity="0.6"/>
<path d="M651.695 59.1078L656.782 50.8458H647.768L642.683 59.1078H651.695Z" fill="#F89D21" fill-opacity="0.6"/>
<path d="M764.001 112.462C763.032 113.121 761.67 112.614 762.179 111.103C763.447 107.255 768.49 99.414 768.49 99.414L782.534 74.5053H772.914C772.456 75.2564 771.479 76.9813 771.479 76.9813C771.033 76.24 769.703 74.5913 769.155 74.2353C766.804 72.75 763.356 73.4523 760.977 74.7986C750.635 80.8461 743.089 92.7942 737.138 102.112C737.138 102.112 730.874 112.47 727.396 113.24C724.681 113.46 724.962 109.803 725.079 108.951C726.129 102.793 728.566 96.9395 731.023 91.6348C736.018 88.1719 741.719 83.6372 746.899 78.6627C758.142 67.9152 767.621 55.7395 769.006 53.0187C769.006 53.0187 767.507 53.3214 765.736 53.3758C757.086 65.4415 739.386 82.9773 734.02 85.5878C736.397 79.87 751.756 52.5786 764.826 39.5237L766.883 37.5442C770.063 34.4384 773.359 31.2504 775.927 30.728C776.198 30.7006 776.547 30.728 776.848 31.3612C776.963 33.7794 776.063 35.5662 775.03 37.5998L773.583 40.5685C773.583 40.5685 775.633 40.1836 776.979 39.7427C778.541 36.8033 780.272 33.5041 779.634 29.5747C779.421 28.3102 778.506 27.3485 777.31 27.1284C773.411 26.3863 769.161 29.2713 765.742 31.6083L765.604 31.6902C748.028 45.46 733.186 65.304 720.211 92.404C719.271 93.1175 715.637 93.9704 715.019 93.5577C716.301 90.9198 717.914 87.3735 718.721 83.5256C718.861 82.426 718.991 81.2998 718.991 80.2005C718.991 77.8349 718.423 75.6094 716.304 74.0708C713.819 72.8338 710.749 73.4114 708.678 74.3453C699.403 78.1932 692.471 87.7036 687.468 95.5357C684.778 100.512 682.095 105.841 681.353 111.944C680.829 116.725 681.894 119.804 684.613 121.343C687.409 122.772 690.928 121.287 692.31 120.573C701.707 115.626 708.272 105.705 713.448 96.6341C713.653 96.6071 716.479 96.5252 718.616 95.9747C718.645 95.9747 718.657 95.9747 718.704 96.0036C718.582 96.4141 717.477 99.7133 717.477 99.7133C714.197 109.332 712.68 115.874 715.779 119.749C720.206 125.219 727.536 119.557 733.498 112.08C732.218 121.04 736.862 122.442 740.402 121.756C744.468 120.657 748.999 116.313 751.101 114.088C750.426 116.698 750.61 121.371 754.308 121.838C756.844 122.307 758.741 120.928 760.937 119.745C768.811 115.457 778.238 101.169 780.685 97.0379H777.476C773.997 102.296 769.57 109.19 764.001 112.462ZM693.316 111.505C692.817 110.763 692.651 109.951 692.634 109.074C692.539 103.685 698.337 94.0339 702.429 88.7762C702.438 88.7762 702.438 88.7762 702.438 88.7762C704.153 92.5317 708.037 94.9457 710.382 95.963C707.47 102.45 697.483 116.342 693.316 111.505ZM712.025 93.0631C711.748 93.2565 706.85 91.6067 705.904 87.0719C705.101 83.1677 707.789 80.1172 710.39 78.5793C711.507 77.6994 713.189 77.3978 714.422 77.8357C715.567 78.6063 715.877 79.9816 715.877 81.4635C715.877 82.3723 715.757 83.3059 715.651 84.1577C715.651 84.1577 715.63 84.3233 715.627 84.3507C714.811 87.4005 713.562 90.3967 712.025 93.0631ZM751.306 109.774C751.302 109.774 750.377 110.598 750.377 110.598C749.056 111.779 747.696 113.044 746.055 112.411C745.602 112.246 745.283 111.643 745.206 111.174C745.132 107.793 746.654 104.661 748.13 101.611L748.509 100.813C752.756 93.7221 757.692 85.3669 764.941 79.5685C766.163 78.6871 767.489 77.9465 768.888 78.5241C769.21 78.8256 769.585 79.3484 769.585 79.87C769.585 80.0357 769.438 80.475 769.353 80.6117C767.328 83.8839 765.4 87.319 763.525 90.6167C759.86 97.131 756.059 103.864 751.306 109.774Z" fill="#F89D21" fill-opacity="0.6"/>
</svg>
