<svg width="209" height="55" viewBox="0 0 209 55" fill="none" xmlns="http://www.w3.org/2000/svg">
<path d="M13.5753 13.9574V8.81818H35.7046V13.9574H27.7656V35H21.527V13.9574H13.5753ZM36.7561 35V15.3636H42.8285V18.9432H43.033C43.391 17.6477 43.9748 16.6847 44.7845 16.054C45.5941 15.4148 46.5359 15.0952 47.6097 15.0952C47.8995 15.0952 48.1978 15.1165 48.5046 15.1591C48.8115 15.1932 49.097 15.2486 49.3612 15.3253V20.7585C49.0629 20.6562 48.6708 20.5753 48.185 20.5156C47.7078 20.456 47.2816 20.4261 46.9066 20.4261C46.1651 20.4261 45.4961 20.5923 44.8995 20.9247C44.3115 21.2486 43.847 21.7045 43.5061 22.2926C43.1737 22.8722 43.0075 23.554 43.0075 24.3381V35H36.7561ZM64.5774 26.5241V15.3636H70.8161V35H64.8587V31.3438H64.6541C64.2195 32.5455 63.478 33.5 62.4297 34.2074C61.3899 34.9062 60.1328 35.2557 58.6584 35.2557C57.3203 35.2557 56.1442 34.9489 55.13 34.3352C54.1158 33.7216 53.3274 32.8651 52.7649 31.7656C52.2024 30.6577 51.9169 29.3622 51.9084 27.8793V15.3636H58.1598V26.652C58.1683 27.7173 58.4496 28.5568 59.0036 29.1705C59.5575 29.7841 60.3118 30.0909 61.2664 30.0909C61.8885 30.0909 62.4468 29.9545 62.9411 29.6818C63.4439 29.4006 63.8402 28.9957 64.13 28.4673C64.4283 27.9304 64.5774 27.2827 64.5774 26.5241ZM91.9386 21.3594L86.1985 21.5128C86.1389 21.1037 85.9769 20.7415 85.7127 20.4261C85.4485 20.1023 85.1034 19.8509 84.6772 19.6719C84.2596 19.4844 83.7738 19.3906 83.2198 19.3906C82.4954 19.3906 81.8775 19.5355 81.3661 19.8253C80.8633 20.1151 80.6161 20.5071 80.6247 21.0014C80.6161 21.3849 80.7695 21.7173 81.0849 21.9986C81.4088 22.2798 81.984 22.5057 82.8107 22.6761L86.5948 23.392C88.5551 23.767 90.0124 24.3892 90.967 25.2585C91.9301 26.1278 92.4159 27.2784 92.4244 28.7102C92.4159 30.0568 92.0153 31.2287 91.2227 32.2259C90.4386 33.223 89.3647 33.9986 88.0011 34.5526C86.6374 35.098 85.0778 35.3707 83.3221 35.3707C80.5181 35.3707 78.3065 34.7955 76.6872 33.6449C75.0764 32.4858 74.1559 30.9347 73.9258 28.9915L80.1005 28.8381C80.2369 29.554 80.5906 30.0994 81.1616 30.4744C81.7326 30.8494 82.4613 31.0369 83.3477 31.0369C84.1488 31.0369 84.8008 30.8878 85.3036 30.5895C85.8065 30.2912 86.0622 29.8949 86.0707 29.4006C86.0622 28.9574 85.8661 28.6037 85.4826 28.3395C85.0991 28.0668 84.4982 27.8537 83.6801 27.7003L80.2539 27.0483C78.2852 26.6903 76.8193 26.0298 75.8562 25.0668C74.8931 24.0952 74.4159 22.8594 74.4244 21.3594C74.4159 20.0469 74.7653 18.9261 75.4727 17.9972C76.1801 17.0597 77.1857 16.3438 78.4897 15.8494C79.7937 15.3551 81.332 15.108 83.1048 15.108C85.7639 15.108 87.8605 15.6662 89.3945 16.7827C90.9286 17.8906 91.7767 19.4162 91.9386 21.3594ZM106.586 15.3636V19.9659H94.1982V15.3636H106.586ZM96.7933 10.6591H103.045V28.8253C103.045 29.2088 103.104 29.5199 103.224 29.7585C103.352 29.9886 103.535 30.1548 103.773 30.2571C104.012 30.3509 104.298 30.3977 104.63 30.3977C104.869 30.3977 105.12 30.3764 105.384 30.3338C105.657 30.2827 105.862 30.2401 105.998 30.206L106.944 34.7188C106.646 34.804 106.224 34.9105 105.678 35.0384C105.141 35.1662 104.498 35.2472 103.748 35.2812C102.282 35.3494 101.025 35.179 99.9766 34.7699C98.9368 34.3523 98.1399 33.7045 97.586 32.8267C97.0405 31.9489 96.7763 30.8452 96.7933 29.5156V10.6591ZM118.744 35.3707C116.69 35.3707 114.917 34.9659 113.425 34.1562C111.942 33.3381 110.8 32.1747 109.999 30.6662C109.207 29.1491 108.81 27.3466 108.81 25.2585C108.81 23.2301 109.211 21.4574 110.012 19.9403C110.813 18.4148 111.942 17.2301 113.4 16.3864C114.857 15.5341 116.575 15.108 118.552 15.108C119.95 15.108 121.228 15.3253 122.387 15.7599C123.546 16.1946 124.548 16.8381 125.391 17.6903C126.235 18.5426 126.891 19.5952 127.36 20.848C127.829 22.0923 128.063 23.5199 128.063 25.1307V26.6903H110.996V23.0597H122.246C122.238 22.3949 122.08 21.8026 121.773 21.2827C121.467 20.7628 121.045 20.358 120.508 20.0682C119.979 19.7699 119.37 19.6207 118.68 19.6207C117.981 19.6207 117.354 19.7784 116.8 20.0938C116.246 20.4006 115.808 20.8224 115.484 21.3594C115.16 21.8878 114.989 22.4886 114.972 23.1619V26.8565C114.972 27.6577 115.13 28.3608 115.445 28.9659C115.761 29.5625 116.208 30.027 116.788 30.3594C117.367 30.6918 118.058 30.858 118.859 30.858C119.413 30.858 119.916 30.7812 120.367 30.6278C120.819 30.4744 121.207 30.2486 121.531 29.9503C121.854 29.652 122.097 29.2855 122.259 28.8509L127.999 29.017C127.761 30.304 127.237 31.4247 126.427 32.3793C125.626 33.3253 124.573 34.0625 123.269 34.5909C121.965 35.1108 120.457 35.3707 118.744 35.3707ZM138.428 35.2812C136.979 35.2812 135.662 34.9062 134.478 34.1562C133.293 33.4062 132.347 32.2812 131.64 30.7812C130.932 29.2812 130.578 27.419 130.578 25.1946C130.578 22.8849 130.945 20.9844 131.678 19.4929C132.411 18.0014 133.37 16.8977 134.554 16.1818C135.748 15.4659 137.03 15.108 138.402 15.108C139.434 15.108 140.316 15.2869 141.049 15.6449C141.782 15.9943 142.387 16.446 142.864 17C143.341 17.554 143.703 18.1293 143.951 18.7259H144.078V8.81818H150.33V35H144.142V31.8168H143.951C143.686 32.4219 143.311 32.9886 142.826 33.517C142.34 34.0455 141.73 34.4716 140.998 34.7955C140.273 35.1193 139.417 35.2812 138.428 35.2812ZM140.601 30.4105C141.36 30.4105 142.007 30.1974 142.544 29.7713C143.081 29.3366 143.495 28.7273 143.784 27.9432C144.074 27.1591 144.219 26.2386 144.219 25.1818C144.219 24.108 144.074 23.1832 143.784 22.4077C143.503 21.6321 143.09 21.0355 142.544 20.6179C142.007 20.2003 141.36 19.9915 140.601 19.9915C139.826 19.9915 139.169 20.2045 138.632 20.6307C138.096 21.0568 137.686 21.6577 137.405 22.4332C137.132 23.2088 136.996 24.125 136.996 25.1818C136.996 26.2386 137.137 27.1591 137.418 27.9432C137.699 28.7273 138.104 29.3366 138.632 29.7713C139.169 30.1974 139.826 30.4105 140.601 30.4105ZM162.018 35V8.81818H168.269V18.7259H168.397C168.653 18.1293 169.015 17.554 169.484 17C169.961 16.446 170.566 15.9943 171.299 15.6449C172.041 15.2869 172.927 15.108 173.958 15.108C175.322 15.108 176.596 15.4659 177.781 16.1818C178.974 16.8977 179.937 18.0014 180.67 19.4929C181.403 20.9844 181.769 22.8849 181.769 25.1946C181.769 27.419 181.416 29.2812 180.708 30.7812C180.009 32.2812 179.063 33.4062 177.87 34.1562C176.685 34.9062 175.369 35.2812 173.92 35.2812C172.931 35.2812 172.075 35.1193 171.35 34.7955C170.626 34.4716 170.016 34.0455 169.522 33.517C169.036 32.9886 168.661 32.4219 168.397 31.8168H168.205V35H162.018ZM168.141 25.1818C168.141 26.2386 168.282 27.1591 168.563 27.9432C168.853 28.7273 169.266 29.3366 169.803 29.7713C170.349 30.1974 171.001 30.4105 171.759 30.4105C172.526 30.4105 173.178 30.1974 173.715 29.7713C174.252 29.3366 174.657 28.7273 174.93 27.9432C175.211 27.1591 175.352 26.2386 175.352 25.1818C175.352 24.125 175.211 23.2088 174.93 22.4332C174.657 21.6577 174.252 21.0568 173.715 20.6307C173.187 20.2045 172.535 19.9915 171.759 19.9915C170.992 19.9915 170.34 20.2003 169.803 20.6179C169.266 21.0355 168.853 21.6321 168.563 22.4077C168.282 23.1832 168.141 24.108 168.141 25.1818ZM188.235 42.3636C187.485 42.3636 186.777 42.304 186.113 42.1847C185.448 42.0739 184.877 41.9247 184.4 41.7372L185.78 37.1989C186.394 37.4034 186.948 37.5227 187.442 37.5568C187.945 37.5909 188.375 37.5099 188.733 37.3139C189.1 37.1264 189.381 36.7898 189.577 36.304L189.82 35.7159L182.84 15.3636H189.385L193.003 29.375H193.208L196.877 15.3636H203.461L196.059 36.8793C195.701 37.9531 195.194 38.8991 194.537 39.7173C193.89 40.544 193.05 41.1918 192.019 41.6605C190.996 42.1293 189.735 42.3636 188.235 42.3636Z" fill="black"/>
<path d="M2.45029 49.2862C40.6142 45.8468 134.855 40.6885 206.508 47.5706" stroke="#F0B80D" stroke-width="4" stroke-linecap="round" stroke-linejoin="round"/>
</svg>
